<svg width="24" height="24" viewBox="0 0 24 24" fill="none" xmlns="http://www.w3.org/2000/svg">
<path d="M16 17.5001V19.5001H2V17.5001C2 17.5001 2 13.5001 9 13.5001C16 13.5001 16 17.5001 16 17.5001ZM12.5 8.00005C12.5 7.30782 12.2947 6.63113 11.9101 6.05556C11.5256 5.47998 10.9789 5.03138 10.3394 4.76647C9.69985 4.50157 8.99612 4.43226 8.31718 4.5673C7.63825 4.70235 7.01461 5.0357 6.52513 5.52518C6.03564 6.01466 5.7023 6.6383 5.56725 7.31724C5.4322 7.99617 5.50152 8.6999 5.76642 9.33944C6.03133 9.97899 6.47993 10.5256 7.0555 10.9102C7.63108 11.2948 8.30777 11.5001 9 11.5001C9.92826 11.5001 10.8185 11.1313 11.4749 10.4749C12.1313 9.81855 12.5 8.92831 12.5 8.00005ZM15.94 13.5001C16.5547 13.9758 17.0578 14.5805 17.4137 15.2716C17.7696 15.9626 17.9697 16.7233 18 17.5001V19.5001H22V17.5001C22 17.5001 22 13.8701 15.94 13.5001ZM15 4.50005C14.3117 4.49622 13.6385 4.70201 13.07 5.09005C13.6774 5.93879 14.0041 6.95634 14.0041 8.00005C14.0041 9.04377 13.6774 10.0613 13.07 10.9101C13.6385 11.2981 14.3117 11.5039 15 11.5001C15.9283 11.5001 16.8185 11.1313 17.4749 10.4749C18.1313 9.81855 18.5 8.92831 18.5 8.00005C18.5 7.07179 18.1313 6.18156 17.4749 5.52518C16.8185 4.8688 15.9283 4.50005 15 4.50005Z" fill="#B73EAB"/>
</svg>
