<svg width="30" height="30" viewBox="0 0 30 30" fill="none" xmlns="http://www.w3.org/2000/svg">
<path d="M0 10.6906L2.5 13.1906C8.7125 6.97813 18.7875 6.97813 25 13.1906L27.5 10.6906C19.9125 3.10313 7.6 3.10313 0 10.6906ZM10 20.6906L13.75 24.4406L17.5 20.6906C17.008 20.1973 16.4235 19.8059 15.78 19.5389C15.1366 19.2719 14.4467 19.1344 13.75 19.1344C13.0533 19.1344 12.3634 19.2719 11.72 19.5389C11.0765 19.8059 10.492 20.1973 10 20.6906ZM5 15.6906L7.5 18.1906C9.15808 16.5339 11.4061 15.6033 13.75 15.6033C16.0939 15.6033 18.3419 16.5339 20 18.1906L22.5 15.6906C17.675 10.8656 9.8375 10.8656 5 15.6906Z" fill="#B73EAB"/>
</svg>
