<svg width="265" height="77" viewBox="0 0 265 77" fill="none" xmlns="http://www.w3.org/2000/svg">
<path d="M97.2845 46.2132V14.1391C97.7707 14.102 98.2012 14.0418 98.6364 14.0418C104.123 14.0326 109.609 14.0187 115.095 14.028C118.877 14.0326 121.53 15.9446 122.65 19.4261C123.845 23.1344 122.692 26.8845 119.711 29.0187C119.516 29.1576 119.34 29.315 119.048 29.5511C119.664 29.8845 120.183 30.1437 120.687 30.44C124.789 32.8382 125.826 39.1484 122.687 42.7132C121.206 44.3984 119.22 45.4586 117.076 45.5743C110.53 45.9308 103.965 46.0187 97.2892 46.2178L97.2845 46.2132ZM106.201 33.4215C106.201 34.9678 106.164 36.3011 106.229 37.6298C106.243 37.9123 106.632 38.4122 106.849 38.4122C109.081 38.4169 111.326 38.4632 113.539 38.241C114.882 38.1067 115.349 36.9585 115.238 35.6715C115.127 34.3937 114.525 33.4585 113.123 33.4308C110.891 33.3845 108.66 33.4169 106.197 33.4169L106.201 33.4215ZM106.261 26.2687C108.368 26.2687 110.303 26.3243 112.229 26.2502C113.437 26.2039 114.141 25.4539 114.173 24.2224C114.201 23.1067 113.919 21.9446 112.655 21.8428C110.558 21.6761 108.433 21.7965 106.261 21.7965V26.2641V26.2687Z" fill="white"/>
<path d="M213.002 37.3796C214.78 32.4536 216.433 27.9721 217.988 23.4583C218.34 22.4351 218.817 22.0647 219.901 22.1064C222.081 22.1897 224.271 22.1296 226.706 22.1296C226.489 22.7684 226.364 23.2221 226.188 23.6573C223.359 30.6296 220.498 37.5879 217.706 44.5787C217.285 45.6296 216.743 46.037 215.618 45.9629C214.178 45.8657 212.725 45.8703 211.285 45.9675C210.225 46.0416 209.789 45.5879 209.479 44.6527C208.72 42.3518 207.868 40.0833 206.901 37.3749C205.938 40.0833 205.067 42.3379 204.34 44.6388C204.007 45.6851 203.479 46.0416 202.405 45.9768C200.914 45.8888 199.414 45.9166 197.919 45.9768C197.053 46.0092 196.572 45.75 196.229 44.9074C193.317 37.7036 190.359 30.5184 187.419 23.324C187.308 23.0555 187.257 22.7684 187.081 22.1573C188.933 22.1573 190.641 22.1573 192.35 22.1573C194.303 22.1573 195.607 23.0647 196.262 24.8796C197.729 28.9444 199.206 33.0092 200.78 37.3518C201.66 34.9907 202.479 33.0601 201.331 30.7268C200.021 28.0694 199.109 25.2129 197.91 22.162C200.257 22.162 202.373 22.1203 204.484 22.2129C204.771 22.2268 205.151 22.861 205.285 23.2731C205.817 24.8657 206.266 26.486 206.882 28.5462C207.488 26.5184 208.03 24.9259 208.428 23.3008C208.651 22.3981 209.076 22.0971 209.979 22.1249C211.817 22.1805 213.66 22.1434 215.734 22.1434C215.549 22.7546 215.442 23.2129 215.276 23.6481C214.377 25.9721 213.646 28.3842 212.512 30.5879C211.326 32.8935 212.058 34.8657 213.002 37.3842V37.3796Z" fill="white"/>
<path d="M175.053 13.9815C174.451 14.7501 174.127 15.1714 173.789 15.5834C170.655 19.4584 167.544 23.3519 164.363 27.1899C163.673 28.0232 163.613 28.588 164.266 29.4908C167.817 34.426 171.298 39.4121 174.798 44.3844C175.095 44.8103 175.354 45.2594 175.812 45.9816C172.609 45.9816 169.743 46.0232 166.877 45.9353C166.474 45.9214 165.998 45.3612 165.715 44.9445C163.46 41.5973 161.248 38.2223 159.016 34.8566C158.748 34.4538 158.451 34.0649 158.146 33.6297C156.377 35.1575 155.085 36.676 155.414 39.1714C155.655 40.9862 155.428 42.8566 155.479 44.6992C155.507 45.6251 155.271 46.051 154.238 46.0186C152.048 45.9538 149.854 45.9631 147.66 46.0186C146.729 46.0418 146.46 45.6853 146.46 44.801C146.474 34.9306 146.447 25.0649 146.479 15.1945C146.479 14.7964 146.928 14.0649 147.187 14.0556C149.863 13.9723 152.544 14.0047 155.419 14.0047V26.014C155.535 26.0556 155.65 26.1019 155.766 26.1436C156.104 25.7547 156.451 25.3797 156.775 24.9816C159.479 21.6575 162.169 18.3195 164.9 15.0139C165.252 14.588 165.794 14.0417 166.261 14.0232C169.039 13.9306 171.826 13.9769 175.053 13.9769V13.9815Z" fill="white"/>
<path d="M35.3864 54.7594C28.1179 54.8381 21.766 53.139 16.7012 48.1807C9.49751 41.1251 6.96972 29.102 13.641 19.1205C17.7151 13.0232 23.4744 9.11119 30.2244 6.42137C35.0161 4.50933 39.7938 3.77322 44.8031 5.26859C50.3772 6.926 54.7615 10.3056 58.1318 14.9121C63.0717 21.6575 65.192 29.1621 63.2754 37.4955C62.2013 42.1575 59.7244 45.9538 55.6365 48.514C49.354 52.4446 42.5855 54.8937 35.3911 54.764L35.3864 54.7594ZM61.942 31.7362C61.5161 29.4955 61.28 27.2038 60.6318 25.0279C58.2152 16.9399 53.3448 10.8658 45.3263 7.82878C36.5762 4.51859 27.1549 8.17138 24.6364 18.6205C21.8216 30.3057 29.5994 44.0696 41.1596 47.8798C45.0948 49.1761 49.1133 49.4307 52.7707 47.3983C58.7939 44.0511 61.817 38.764 61.9374 31.7316L61.942 31.7362ZM25.0577 11.7038C24.942 11.6158 24.8309 11.5325 24.7151 11.4445C23.067 12.7501 21.317 13.9445 19.7938 15.3797C15.4142 19.5001 12.4003 24.3612 12.1225 30.5788C11.7383 39.2362 16.1596 46.8474 23.7475 50.3288C29.0855 52.7779 34.7059 53.0696 40.4281 52.1344C41.7892 51.9122 43.1272 51.5279 44.4744 51.2131C35.3586 49.3566 29.0161 44.1112 24.9836 36.1205C20.9281 28.0788 20.3447 19.8566 25.0577 11.7038V11.7038Z" fill="white"/>
<path d="M236.998 22.1391V45.8938C234.326 45.8938 231.701 45.9216 229.081 45.8475C228.822 45.8382 228.359 45.2086 228.354 44.866C228.308 37.6484 228.303 30.4262 228.336 23.2039C228.336 22.8475 228.766 22.1901 229.012 22.1808C231.632 22.1067 234.257 22.1345 236.993 22.1345L236.998 22.1391Z" fill="white"/>
<path d="M176.706 22.1713C179.47 22.1713 182.002 22.1343 184.53 22.2176C184.84 22.2268 185.391 22.8611 185.391 23.2037C185.447 30.4213 185.433 37.6389 185.46 44.8611C185.46 45.7037 185.155 46 184.322 45.9908C182.132 45.9584 179.937 46.0232 177.752 45.9445C177.396 45.9306 176.752 45.3982 176.747 45.0972C176.692 37.5371 176.701 29.9769 176.701 22.1713H176.706Z" fill="white"/>
<path d="M127.474 29.5972C132.095 29.5972 136.479 29.5786 140.858 29.6342C141.159 29.6342 141.701 30.1805 141.715 30.4907C141.794 32.4814 141.808 34.4814 141.715 36.4722C141.701 36.8101 141.113 37.4074 140.78 37.412C136.641 37.4814 132.502 37.4768 128.363 37.4212C128.062 37.4212 127.521 36.8657 127.511 36.5509C127.437 34.3194 127.47 32.0833 127.47 29.5925L127.474 29.5972Z" fill="white"/>
<path d="M232.692 12.8518C234.104 12.9814 235.993 12.6157 236.79 13.3842C237.507 14.0787 237.063 16.0092 237.072 17.3935C237.095 20.4305 237.081 20.4305 233.97 20.4351C232.475 20.4351 230.979 20.4074 229.489 20.4537C228.572 20.4814 228.262 20.1018 228.29 19.2129C228.336 17.5694 228.341 15.9259 228.285 14.2824C228.253 13.3287 228.544 12.9074 229.549 12.9675C230.591 13.0324 231.641 12.9814 232.683 12.9814L232.692 12.8518V12.8518Z" fill="white"/>
<path d="M181.025 20.514C179.933 20.514 178.835 20.4909 177.743 20.5233C176.983 20.5464 176.664 20.2455 176.673 19.477C176.696 17.639 176.641 15.7964 176.72 13.9585C176.733 13.6483 177.266 13.1159 177.571 13.1066C179.858 13.0325 182.146 13.0233 184.433 13.102C184.771 13.1159 185.358 13.676 185.377 14.0094C185.47 15.8427 185.474 17.6899 185.382 19.5233C185.363 19.8659 184.808 20.4214 184.451 20.4585C183.321 20.5788 182.169 20.5048 181.025 20.5048V20.514V20.514Z" fill="white"/>
<path d="M75.2981 29.6065C75.2981 38.8751 75.2981 48.1482 75.2981 57.4167C75.2981 57.8149 75.349 58.2269 75.2611 58.6066C75.2102 58.8195 74.9324 58.9862 74.7564 59.1714C74.6176 59.0001 74.3861 58.8427 74.3537 58.6529C74.2842 58.264 74.3166 57.8612 74.3166 57.4584C74.3166 38.8658 74.312 20.2778 74.3351 1.68519C74.3351 1.125 74.6268 0.560186 74.7842 0C74.9555 0.546297 75.275 1.09259 75.275 1.63889C75.3074 10.9583 75.2981 20.2778 75.2981 29.6019V29.6065Z" fill="white"/>
<path d="M113.53 70.787C113.053 71.5185 112.599 72.2639 112.094 72.9722C111.294 74.1019 110.756 74.088 109.96 72.9352C109.437 72.1806 108.956 71.3935 108.201 70.6898C108.201 72.162 108.261 73.6343 108.164 75.1018C108.136 75.5046 107.641 75.875 107.363 76.2593C107.062 75.8796 106.516 75.5046 106.502 75.1111C106.418 72.7222 106.428 70.3287 106.493 67.9398C106.502 67.537 106.858 66.9074 107.178 66.8102C107.516 66.713 108.159 67.0139 108.4 67.3426C109.312 68.5787 110.113 69.8981 111.081 71.375C111.988 70.0509 112.77 68.8102 113.664 67.6574C113.979 67.2454 114.567 67.0463 115.025 66.7454C115.256 67.2315 115.669 67.713 115.687 68.2037C115.756 70.4444 115.77 72.6898 115.673 74.9259C115.655 75.3843 115.057 75.8148 114.729 76.2593C114.446 75.8241 113.956 75.4074 113.914 74.9537C113.803 73.6204 113.877 72.2731 113.877 70.9305C113.766 70.8796 113.65 70.8333 113.539 70.7824L113.53 70.787Z" fill="white"/>
<path d="M89.6966 71.3935C90.6689 69.9352 91.4559 68.6667 92.3541 67.4815C92.6318 67.1157 93.2244 66.9907 93.6735 66.7592C93.8726 67.1759 94.2337 67.588 94.243 68.0139C94.2985 70.3518 94.317 72.6991 94.2244 75.0324C94.2106 75.4537 93.6318 75.8519 93.317 76.2593C93.0068 75.8333 92.4698 75.4306 92.4281 74.9815C92.3078 73.6574 92.3865 72.3148 92.3865 70.5C91.6226 71.6065 91.1087 72.3565 90.5902 73.1019C89.9096 74.0833 89.2476 73.9954 88.6226 73.0556C88.1365 72.3287 87.6689 71.588 86.8679 70.9167C86.8679 72.1759 86.9605 73.4491 86.8263 74.6944C86.7661 75.2407 86.2476 75.7407 85.9374 76.2593C85.6596 75.7685 85.155 75.287 85.1365 74.7917C85.0485 72.5556 85.0624 70.3102 85.1318 68.0694C85.1457 67.6204 85.5578 67.1898 85.7846 66.7454C86.2244 66.9907 86.8078 67.125 87.0855 67.4954C87.9744 68.6805 88.7476 69.9491 89.7059 71.3981L89.6966 71.3935Z" fill="white"/>
<path d="M72.919 71.5325C72.9051 74.3983 70.9144 76.4631 68.2061 76.4214C65.5579 76.3798 63.6551 74.3335 63.6412 71.5233C63.6274 68.6575 65.6135 66.5325 68.2894 66.5418C70.9838 66.551 72.9283 68.6483 72.9144 71.5325H72.919ZM70.9746 71.4214C70.9468 69.6621 69.7338 68.3473 68.1829 68.4029C66.6644 68.4584 65.6366 69.6992 65.6366 71.4816C65.6366 73.3149 66.7524 74.6066 68.3218 74.5835C69.8496 74.5603 71.007 73.1853 70.9792 71.4214H70.9746Z" fill="white"/>
<path d="M244.151 71.5186C244.141 74.3705 242.132 76.4631 239.442 76.426C236.831 76.389 234.859 74.301 234.831 71.5371C234.803 68.7408 236.854 66.5464 239.503 66.5464C242.183 66.5464 244.165 68.6668 244.151 71.5232V71.5186ZM236.85 71.514C236.859 73.3381 238.007 74.6297 239.572 74.5834C241.077 74.5371 242.28 73.0973 242.234 71.3936C242.188 69.7408 240.993 68.4214 239.526 68.4029C237.961 68.3844 236.84 69.6899 236.85 71.514Z" fill="white"/>
<path d="M149.974 71.4537C149.974 70.3055 149.988 69.1574 149.974 68.0138C149.961 67.0694 150.386 66.6527 151.345 66.699C152.289 66.7453 153.238 66.6851 154.187 66.7175C156.836 66.8148 158.238 68.5277 158.211 71.6018C158.183 74.5324 156.738 76.2638 154.118 76.2546C149.317 76.2361 150.044 77.0046 149.974 72.2037C149.974 71.9537 149.974 71.7037 149.974 71.4537H149.979H149.974ZM151.951 74.574C153.447 74.4027 155.011 75.0509 155.831 73.4166C156.516 72.0509 156.53 70.5601 155.669 69.3009C154.757 67.9722 153.303 68.4814 151.951 68.5324V74.574V74.574Z" fill="white"/>
<path d="M132.502 76.4169C129.84 76.4354 127.794 74.278 127.813 71.4678C127.831 68.7178 129.785 66.6206 132.4 66.5465C135.007 66.4724 137.146 68.6576 137.192 71.4354C137.238 74.2086 135.178 76.3937 132.507 76.4123L132.502 76.4169ZM135.169 71.5095C135.178 69.7271 134.012 68.3937 132.456 68.4076C130.988 68.4215 129.803 69.741 129.762 71.4076C129.72 73.1298 130.914 74.5558 132.428 74.5882C133.975 74.6206 135.16 73.2873 135.164 71.5095H135.169Z" fill="white"/>
<path d="M263.257 72.4308C263.257 71.0048 263.183 69.5743 263.299 68.1576C263.34 67.6622 263.85 67.2085 264.146 66.7317C264.424 67.2224 264.914 67.7039 264.938 68.2085C265.026 70.3428 265.012 72.4863 264.951 74.6252C264.938 75.153 264.6 75.6715 264.414 76.1947C263.882 75.94 263.211 75.8104 262.85 75.403C261.697 74.1021 260.664 72.6947 259.576 71.3382C259.345 71.0511 259.072 70.7919 258.549 70.2271C258.549 72.065 258.618 73.5419 258.507 75.0048C258.475 75.44 257.942 75.8382 257.637 76.2502C257.387 75.8382 256.938 75.4308 256.924 75.0141C256.854 72.6761 256.863 70.3382 256.914 68.0002C256.924 67.5835 257.262 66.8428 257.484 66.8289C257.938 66.8058 258.553 67.0465 258.85 67.3937C260.257 69.0604 261.576 70.8058 262.928 72.5187C263.039 72.4863 263.151 72.4585 263.262 72.4261L263.257 72.4308Z" fill="white"/>
<path d="M179.553 75.5372C179.41 75.7178 179.187 76.2224 178.97 76.2224C178.604 76.2224 178.169 75.9631 177.896 75.6854C177.47 75.2502 177.224 74.3798 176.775 74.2826C175.78 74.0696 174.687 74.1113 173.669 74.2826C173.322 74.3381 173.146 75.1391 172.785 75.4909C172.437 75.8289 171.951 76.0187 171.525 76.2733C171.424 75.8011 171.113 75.2502 171.257 74.8752C172.211 72.4261 173.238 70.0048 174.308 67.602C174.474 67.227 174.947 66.815 175.331 66.7594C175.618 66.7178 176.146 67.1437 176.294 67.4816C177.349 69.8891 178.34 72.3242 179.345 74.7548C179.419 74.9354 179.447 75.1391 179.549 75.5418L179.553 75.5372ZM175.238 69.69C174.812 70.7548 174.512 71.5002 174.178 72.3381H176.382C176.021 71.5048 175.715 70.7918 175.238 69.69V69.69Z" fill="white"/>
<path d="M8.33528 75.5741C8.20565 75.7269 7.97417 76.213 7.74731 76.213C7.38157 76.213 6.94639 75.9583 6.67324 75.6852C6.24731 75.25 6.00194 74.375 5.55287 74.2778C4.55749 74.0602 3.46027 74.1065 2.44175 74.2778C2.09916 74.3333 1.92786 75.1389 1.56675 75.4907C1.21953 75.8287 0.733414 76.0139 0.307487 76.2685C0.205635 75.7963 -0.109181 75.2407 0.0389672 74.8657C0.997302 72.4167 2.02971 69.9907 3.10379 67.5926C3.27045 67.2176 3.73805 66.8611 4.1362 66.75C4.36305 66.6852 4.8862 67.0648 5.01583 67.3565C6.12694 69.9074 7.1825 72.4815 8.24731 75.0509C8.28435 75.1389 8.28435 75.2454 8.34454 75.5833L8.33528 75.5741ZM2.92323 72.4306C3.75194 72.3843 4.38157 72.3518 5.21027 72.3055C4.7612 71.3518 4.44175 70.6759 3.99731 69.7361C3.57138 70.8055 3.28435 71.5324 2.92786 72.4306H2.92323Z" fill="white"/>
<path d="M26.7195 66.5696C27.3908 66.7316 28.1176 66.7872 28.7102 67.0974C29.0158 67.2594 29.2195 67.8798 29.201 68.2779C29.1917 68.4585 28.5436 68.6992 28.1639 68.7455C27.8491 68.7872 27.5065 68.5372 27.1639 68.4955C25.9417 68.3427 24.8352 68.6251 24.1824 69.7316C23.4741 70.9261 23.4602 72.2501 24.2102 73.4168C24.8908 74.477 26.0158 74.7455 27.238 74.5326C27.4324 74.5001 27.6408 74.3705 27.8121 74.4076C28.3121 74.514 28.7936 74.6853 29.2843 74.8335C28.9417 75.2779 28.6824 75.9863 28.2426 76.1205C26.2658 76.7131 24.3584 76.4863 22.9047 74.8705C21.4556 73.2594 21.3676 71.3011 22.1454 69.4075C22.9417 67.4677 24.5898 66.6159 26.7102 66.5696H26.7195Z" fill="white"/>
<path d="M48.3959 66.6482C48.7477 66.7269 49.47 66.7825 50.0718 67.0788C50.3959 67.2408 50.5163 67.8195 50.7292 68.2084C50.3264 68.3936 49.9375 68.6297 49.5116 68.7454C49.3125 68.7963 49.0533 68.5787 48.8125 68.5417C47.5579 68.338 46.4051 68.5186 45.6412 69.6575C44.8125 70.8889 44.7709 72.1806 45.6227 73.4214C46.3959 74.5417 47.5301 74.7547 48.7987 74.5139C48.9931 74.4769 49.1968 74.3149 49.3635 74.3519C49.8311 74.4676 50.2755 74.6621 50.7292 74.8288C50.4792 75.2362 50.3218 75.8334 49.9561 76.0139C48.2894 76.838 45.8496 76.3843 44.5348 75.1251C43.2107 73.8565 42.7338 71.551 43.4236 69.7315C44.1459 67.8195 45.6459 66.7686 47.7616 66.6852C47.8588 66.6852 47.9607 66.676 48.4051 66.6528L48.3959 66.6482Z" fill="white"/>
<path d="M195.738 68.4308C194.942 68.4308 194.368 68.542 193.868 68.3938C193.479 68.2781 193.183 67.8475 192.845 67.5512C193.178 67.2688 193.502 66.7642 193.845 66.7457C195.729 66.667 197.623 66.6669 199.512 66.741C199.882 66.7549 200.234 67.2179 200.595 67.4771C200.229 67.7966 199.91 68.2549 199.484 68.3938C198.998 68.5558 198.414 68.4308 197.697 68.4308C197.697 70.5234 197.706 72.5003 197.692 74.4725C197.688 75.2364 197.91 76.2596 196.692 76.2318C195.465 76.204 195.766 75.1438 195.752 74.4123C195.715 72.4864 195.738 70.5558 195.738 68.4262V68.4308Z" fill="white"/>
<path d="M219.025 71.3706C219.025 72.616 219.095 73.866 218.984 75.1021C218.947 75.5095 218.437 75.8752 218.141 76.2595C217.817 75.8567 217.234 75.4632 217.215 75.0465C217.127 72.6622 217.132 70.2687 217.215 67.8798C217.229 67.4863 217.766 67.1113 218.058 66.7317C218.382 67.1345 218.933 67.5095 218.984 67.9447C219.118 69.0743 219.03 70.2271 219.03 71.3752C219.03 71.3752 219.025 71.3752 219.021 71.3752L219.025 71.3706Z" fill="white"/>
<path d="M25.0578 11.7036C20.3448 19.8564 20.9281 28.0786 24.9837 36.1203C29.0161 44.1157 35.3587 49.3564 44.4745 51.2129C43.1272 51.5231 41.7939 51.912 40.4282 52.1342C34.7059 53.0694 29.0809 52.7731 23.7476 50.3286C16.1596 46.8472 11.7383 39.236 12.1226 30.5786C12.4004 24.361 15.4142 19.5045 19.7939 15.3795C21.317 13.9443 23.067 12.7499 24.7152 11.4443C24.8309 11.5323 24.942 11.6156 25.0578 11.7036Z" fill="white"/>
<path d="M47.8261 35.6438C47.9511 36.4169 48.2196 37.204 48.1501 37.9586C48.0992 38.4679 47.5668 38.9262 47.2474 39.4077C46.8353 39.0512 46.1779 38.7688 46.0622 38.3336C45.6594 36.8475 45.377 35.3243 45.1779 33.7966C45.0344 32.6716 45.877 32.2317 46.9233 32.7179C47.377 32.9262 47.914 32.9493 48.414 33.0558C48.4557 32.9354 48.4927 32.8104 48.5344 32.6901C48.1316 32.4401 47.6918 32.2364 47.3353 31.9354C46.5899 31.3058 46.4048 30.6391 47.3816 30.028C48.4464 29.3614 47.965 28.5373 47.6177 27.7271C47.4372 27.3058 47.0298 26.8058 47.1409 26.4864C47.2659 26.1299 47.8307 25.7873 48.2566 25.704C49.6733 25.4308 51.1038 25.1762 52.539 25.1345C53.0483 25.1206 53.5761 25.7317 54.0946 26.0604C53.6733 26.4447 53.3168 27.0049 52.8214 27.1808C52.0066 27.4678 51.1085 27.5003 50.2196 27.9586C51.2983 28.153 52.377 28.3336 53.4511 28.5512C54.1687 28.6947 54.9927 28.9771 54.6224 29.8567C54.4372 30.2919 53.5714 30.6947 53.0298 30.6762C51.8585 30.6391 50.6964 30.3197 49.4187 30.4262C50.4094 30.9308 51.4696 31.3429 52.3677 31.9817C52.8075 32.2966 52.9464 33.028 53.2242 33.5743C52.6177 33.7086 51.9742 34.0373 51.4094 33.9354C50.7057 33.8104 50.0668 33.3382 49.2011 33.204C50.0761 34.3567 50.9464 35.5095 51.8261 36.6577C52.3214 37.3058 52.9233 38.0188 52.0344 38.7132C51.1687 39.3892 50.5853 38.7086 50.0714 38.0466C49.414 37.1993 48.7474 36.3614 48.0853 35.5188C48.002 35.5651 47.9233 35.6067 47.8399 35.653L47.8261 35.6438Z" fill="white"/>
<path d="M37.9279 22.5C36.8353 21.0787 35.6872 19.6991 34.6918 18.213C34.4279 17.8194 34.6548 17.1018 34.6548 16.5278C35.252 16.6574 36.039 16.5879 36.4001 16.9491C37.3029 17.8472 38.0113 18.9398 39.0946 19.8148C38.7705 18.5 38.4511 17.1852 38.127 15.8704C37.9418 15.1342 37.6594 14.2824 38.6594 13.9907C39.7566 13.6759 40.1409 14.4676 40.3446 15.3842C40.5251 16.1944 40.752 17 41.1779 17.7731C41.2011 17.4398 41.1224 17.0463 41.2752 16.7917C41.5668 16.3009 41.9927 15.8935 42.3631 15.4491C42.7566 15.8796 43.3677 16.2546 43.4974 16.7546C43.7474 17.6944 43.7196 18.7083 44.0992 19.7546C44.6085 18.5509 45.1177 17.3426 45.6316 16.1389C45.9603 15.3565 46.3955 14.5879 47.3863 15.0046C48.4141 15.4398 48.0622 16.2963 47.7381 17.0509C47.1733 18.375 46.5946 19.6944 46.0205 21.0139C45.914 21.1528 45.8076 21.287 45.7011 21.4259C44.8122 21.5972 43.9927 21.4722 43.1039 22.2778C42.1594 23.1389 41.7659 21.7454 41.3677 20.7407C40.1872 21.3194 39.0344 21.8796 37.8863 22.4398L37.9279 22.4815V22.5Z" fill="white"/>
<path d="M40.0205 33.7734C39.3909 34.3243 38.826 35.0049 38.1038 35.3845C37.6455 35.6253 36.9557 35.4216 36.3723 35.4169C36.4742 34.8429 36.4279 34.1808 36.7149 33.7271C37.0668 33.1669 37.6964 32.7827 38.0853 32.0836C36.7936 32.5188 35.5297 33.0651 34.2057 33.3382C33.627 33.4586 32.5899 33.2132 32.3631 32.8012C31.8723 31.9215 32.701 31.5327 33.4649 31.278C34.6964 30.8706 35.9279 30.4678 37.1408 30.0141C38.2381 29.6067 39.2103 29.4586 39.4881 30.4956C40.4186 30.6299 41.2612 30.5234 41.6686 30.8891C41.9603 31.1577 41.6779 32.0604 41.6362 32.8984C41.752 32.8706 42.1872 32.8799 42.4788 32.6808C43.6686 31.8521 44.4372 32.1299 44.5992 33.5743C44.7566 34.9586 44.914 36.3614 44.8723 37.7503C44.8585 38.2317 44.2473 38.6993 43.9094 39.1716C43.4927 38.7688 42.8723 38.4401 42.7103 37.954C42.4464 37.1762 42.4834 36.2966 42.1455 35.3845C41.6918 36.4447 41.3307 37.5651 40.7427 38.5466C40.4557 39.028 39.6825 39.6206 39.252 39.5373C38.252 39.3429 38.4464 38.4817 38.752 37.7317C39.2566 36.491 39.752 35.2503 40.252 34.0141C40.1733 33.9401 40.0992 33.8614 40.0205 33.7873V33.7734Z" fill="white"/>
<path d="M45.7055 21.4398C45.812 21.3009 45.9185 21.1667 46.025 21.0278C46.8259 20.463 47.5805 19.7963 48.4509 19.3796C48.9509 19.1389 49.65 19.3009 50.2565 19.2824C50.1222 19.8426 50.1361 20.5046 49.8259 20.9306C49.3398 21.5926 48.6315 22.088 48.1731 22.9074C49.3213 22.3056 50.4278 21.5972 51.6315 21.1528C52.187 20.9491 53.2472 21.0278 53.5296 21.3935C54.1546 22.2037 53.3537 22.6759 52.6592 23.0417C51.6037 23.5972 50.5666 24.1852 49.5157 24.7454C47.8676 25.6204 47.5852 25.5232 47.0111 24.1713C46.1639 24.0324 45.4648 24.0139 44.8768 23.75C44.724 23.6806 44.8352 22.8056 44.9833 22.3519C45.0944 22.0046 45.4555 21.7361 45.7055 21.4352V21.4398Z" fill="white"/>
<path d="M37.0347 24.8148C37.0717 25.4676 37.1087 26.1157 37.1458 26.8194C37.4652 26.8194 37.993 26.7083 38.4328 26.8518C38.8356 26.9861 39.4421 27.4028 39.4328 27.6759C39.4189 28.1018 39.0208 28.8148 38.6782 28.8842C37.0254 29.213 35.3448 29.4305 33.6597 29.5324C33.3032 29.5555 32.6365 28.9676 32.6041 28.6157C32.5717 28.2592 33.0671 27.662 33.4698 27.4954C34.1411 27.2176 34.9189 27.1991 35.7337 26.838C34.5115 26.4676 33.2893 26.0833 32.0624 25.7222C31.2893 25.4954 30.368 25.3194 30.6689 24.2222C30.9698 23.1296 31.868 23.4166 32.6458 23.625C34.1319 24.0231 35.6087 24.4444 37.0902 24.8565L37.0347 24.8102V24.8148Z" fill="white"/>
<path d="M37.8862 22.4584C37.951 22.5278 38.0344 22.588 38.076 22.6714C38.3723 23.2454 38.6594 23.8288 38.9464 24.4075C38.3075 24.5417 37.6686 24.676 37.0298 24.8149C37.0298 24.8149 37.0853 24.8612 37.0853 24.8658C36.0807 24.1482 35.002 23.5047 34.0946 22.676C33.6918 22.3056 33.6316 21.5602 33.414 20.9862C34.0344 20.9352 34.7473 20.6621 35.2612 20.8751C36.2103 21.2686 37.0436 21.9399 37.9233 22.5001L37.8816 22.463L37.8862 22.4584Z" fill="white"/>
</svg>
