<svg width="30" height="30" viewBox="0 0 30 30" fill="none" xmlns="http://www.w3.org/2000/svg">
<path d="M22.5 23.75V20H24.375V23.75H22.5ZM4.375 23.75C3.85417 23.75 3.41167 23.5675 3.0475 23.2025C2.6825 22.8383 2.5 22.3958 2.5 21.875C2.5 21.3541 2.6825 20.9116 3.0475 20.5475C3.41167 20.1825 3.85417 20 4.375 20H21.25V23.75H4.375ZM23.4375 18.75C23.1667 18.75 22.9425 18.6612 22.765 18.4837C22.5883 18.3071 22.5 18.0833 22.5 17.8125V17.125C22.5 16.3125 22.2604 15.6925 21.7812 15.265C21.3021 14.8383 20.7292 14.625 20.0625 14.625H18.125C16.9583 14.625 15.9688 14.2187 15.1562 13.4062C14.3438 12.5937 13.9375 11.6041 13.9375 10.4375C13.9375 9.43748 14.2346 8.56748 14.8287 7.82748C15.4221 7.08832 16.1771 6.60415 17.0938 6.37498C17.3646 6.31248 17.6042 6.37498 17.8125 6.56248C18.0208 6.74998 18.125 6.99998 18.125 7.31248C18.125 7.52082 18.0467 7.70832 17.89 7.87498C17.7342 8.04165 17.5417 8.17707 17.3125 8.28123C16.875 8.4479 16.5158 8.71873 16.235 9.09373C15.9533 9.46873 15.8125 9.91665 15.8125 10.4375C15.8125 11.1041 16.0417 11.6562 16.5 12.0937C16.9583 12.5312 17.5 12.75 18.125 12.75H20.0625C21.2292 12.75 22.2396 13.125 23.0938 13.875C23.9479 14.625 24.375 15.5625 24.375 16.6875V17.8125C24.375 18.0833 24.2867 18.3071 24.11 18.4837C23.9325 18.6612 23.7083 18.75 23.4375 18.75ZM25.625 23.75V20H27.5V23.75H25.625ZM26.5625 18.75C26.2917 18.75 26.0675 18.6612 25.89 18.4837C25.7133 18.3071 25.625 18.0833 25.625 17.8125V15.9375C25.625 14.6875 25.2342 13.5937 24.4525 12.6562C23.6717 11.7187 22.6771 11.1458 21.4688 10.9375C21.1771 10.875 20.9638 10.7604 20.8288 10.5937C20.6929 10.4271 20.625 10.2291 20.625 9.99998C20.625 9.68748 20.6875 9.44248 20.8125 9.26498C20.9375 9.08832 21.1458 8.9479 21.4375 8.84373C21.875 8.67707 22.2346 8.39582 22.5163 7.99998C22.7971 7.60415 22.9375 7.16665 22.9375 6.68748C22.9375 6.18748 22.7867 5.73957 22.485 5.34373C22.1825 4.9479 21.8021 4.66665 21.3438 4.49998C21.1354 4.41665 20.9638 4.29665 20.8288 4.13998C20.6929 3.98415 20.625 3.81248 20.625 3.62498C20.625 3.29165 20.7396 3.02582 20.9688 2.82748C21.1979 2.62998 21.4583 2.5729 21.75 2.65623C22.625 2.90623 23.3542 3.40082 23.9375 4.13998C24.5208 4.87998 24.8125 5.72915 24.8125 6.68748C24.8125 7.29165 24.6979 7.83832 24.4688 8.32748C24.2396 8.81748 23.9375 9.27082 23.5625 9.68748C24.7292 10.2291 25.6771 11.0625 26.4062 12.1875C27.1354 13.3125 27.5 14.5625 27.5 15.9375V17.8125C27.5 18.0833 27.4117 18.3071 27.235 18.4837C27.0575 18.6612 26.8333 18.75 26.5625 18.75Z" fill="#B73EAB"/>
</svg>
