<svg width="30" height="30" viewBox="0 0 30 30" fill="none" xmlns="http://www.w3.org/2000/svg">
<path d="M11.25 26.25C10.8958 26.25 10.5992 26.13 10.36 25.89C10.12 25.6508 10 25.3542 10 25V23.75H5C4.3125 23.75 3.72417 23.5054 3.235 23.0163C2.745 22.5263 2.5 21.9375 2.5 21.25V6.25C2.5 5.5625 2.745 4.97375 3.235 4.48375C3.72417 3.99458 4.3125 3.75 5 3.75H25C25.6875 3.75 26.2763 3.99458 26.7663 4.48375C27.2554 4.97375 27.5 5.5625 27.5 6.25V21.25C27.5 21.9375 27.2554 22.5263 26.7663 23.0163C26.2763 23.5054 25.6875 23.75 25 23.75H20V25C20 25.3542 19.8804 25.6508 19.6413 25.89C19.4013 26.13 19.1042 26.25 18.75 26.25H11.25ZM5 21.25H25V6.25H5V21.25ZM5 21.25V6.25V21.25Z" fill="#B73EAB"/>
</svg>
