<svg width="30" height="30" viewBox="0 0 30 30" fill="none" xmlns="http://www.w3.org/2000/svg">
<path d="M18.75 16.25V6.25C18.75 5.25544 18.3549 4.30161 17.6517 3.59835C16.9484 2.89509 15.9946 2.5 15 2.5C14.0054 2.5 13.0516 2.89509 12.3483 3.59835C11.6451 4.30161 11.25 5.25544 11.25 6.25V16.25C10.2006 17.0371 9.42542 18.1344 9.03429 19.3865C8.64316 20.6385 8.65591 21.982 9.07073 23.2264C9.48555 24.4709 10.2814 25.5533 11.3456 26.3203C12.4097 27.0873 13.6882 27.5 15 27.5C16.3118 27.5 17.5903 27.0873 18.6544 26.3203C19.7186 25.5533 20.5145 24.4709 20.9293 23.2264C21.3441 21.982 21.3568 20.6385 20.9657 19.3865C20.5746 18.1344 19.7994 17.0371 18.75 16.25ZM15 5C15.3315 5 15.6495 5.1317 15.8839 5.36612C16.1183 5.60054 16.25 5.91848 16.25 6.25V10H13.75V6.25C13.75 5.91848 13.8817 5.60054 14.1161 5.36612C14.3505 5.1317 14.6685 5 15 5Z" fill="#B73EAB"/>
</svg>
