<svg width="30" height="30" viewBox="0 0 30 30" fill="none" xmlns="http://www.w3.org/2000/svg">
<path d="M10 13.75L11.875 8.125H23.125L25 13.75M23.125 20C22.6277 20 22.1508 19.8025 21.7992 19.4508C21.4475 19.0992 21.25 18.6223 21.25 18.125C21.25 17.6277 21.4475 17.1508 21.7992 16.7992C22.1508 16.4475 22.6277 16.25 23.125 16.25C23.6223 16.25 24.0992 16.4475 24.4508 16.7992C24.8025 17.1508 25 17.6277 25 18.125C25 18.6223 24.8025 19.0992 24.4508 19.4508C24.0992 19.8025 23.6223 20 23.125 20ZM11.875 20C11.3777 20 10.9008 19.8025 10.5492 19.4508C10.1975 19.0992 10 18.6223 10 18.125C10 17.6277 10.1975 17.1508 10.5492 16.7992C10.9008 16.4475 11.3777 16.25 11.875 16.25C12.3723 16.25 12.8492 16.4475 13.2008 16.7992C13.5525 17.1508 13.75 17.6277 13.75 18.125C13.75 18.6223 13.5525 19.0992 13.2008 19.4508C12.8492 19.8025 12.3723 20 11.875 20ZM24.9 7.5C24.6375 6.75 23.925 6.25 23.125 6.25H11.875C11.075 6.25 10.3625 6.75 10.1 7.5L7.5 15V25C7.5 25.3315 7.6317 25.6495 7.86612 25.8839C8.10054 26.1183 8.41848 26.25 8.75 26.25H10C10.3315 26.25 10.6495 26.1183 10.8839 25.8839C11.1183 25.6495 11.25 25.3315 11.25 25V23.75H23.75V25C23.75 25.3315 23.8817 25.6495 24.1161 25.8839C24.3505 26.1183 24.6685 26.25 25 26.25H26.25C26.5815 26.25 26.8995 26.1183 27.1339 25.8839C27.3683 25.6495 27.5 25.3315 27.5 25V15L24.9 7.5ZM18.65 3.75C18.3875 3 17.675 2.5 16.875 2.5H5.625C4.825 2.5 4.1125 3 3.85 3.75L1.25 11.25V21.25C1.25 21.5815 1.3817 21.8995 1.61612 22.1339C1.85054 22.3683 2.16848 22.5 2.5 22.5H3.75C4.08152 22.5 4.39946 22.3683 4.63388 22.1339C4.8683 21.8995 5 21.5815 5 21.25V16.1375C4.76927 16.0547 4.55711 15.9273 4.37567 15.7625C4.19422 15.5977 4.04705 15.3987 3.94256 15.177C3.83808 14.9552 3.77833 14.7151 3.76674 14.4702C3.75514 14.2254 3.79193 13.9806 3.875 13.75C4.15 13 4.8375 12.5 5.625 12.5H5.7125L6.5875 10H3.75L5.625 4.375H18.8625L18.65 3.75Z" fill="#B73EAB"/>
</svg>
