<svg width="30" height="30" viewBox="0 0 30 30" fill="none" xmlns="http://www.w3.org/2000/svg">
<path d="M15 5C20.5125 5 25 9.4875 25 15C25 20.5125 20.5125 25 15 25C9.4875 25 5 20.5125 5 15C5 9.4875 9.4875 5 15 5ZM15 2.5C8.125 2.5 2.5 8.125 2.5 15C2.5 21.875 8.125 27.5 15 27.5C21.875 27.5 27.5 21.875 27.5 15C27.5 8.125 21.875 2.5 15 2.5ZM15 13.75C14.3125 13.75 13.75 14.3125 13.75 15C13.75 15.6875 14.3125 16.25 15 16.25C15.6875 16.25 16.25 15.6875 16.25 15C16.25 14.3125 15.6875 13.75 15 13.75ZM13.4 11.625C13.8875 11.3875 14.425 11.25 15 11.25C15.575 11.25 16.1125 11.3875 16.6125 11.625L17.5 10.7125C16.7875 10.275 15.925 10 15 10C14.075 10 13.225 10.275 12.5 10.7125L13.4 11.625ZM18.75 15C18.75 15.575 18.6125 16.1125 18.375 16.6125L19.2875 17.5C19.7375 16.7875 20 15.925 20 15C20 14.075 19.7375 13.225 19.2875 12.5L18.375 13.4C18.6125 13.8875 18.75 14.425 18.75 15ZM11.25 15C11.25 14.425 11.3875 13.8875 11.625 13.4L10.7125 12.5C10.275 13.225 10 14.075 10 15C10 15.925 10.275 16.7875 10.7125 17.5L11.625 16.6125C11.3875 16.1125 11.25 15.575 11.25 15ZM16.6125 18.375C16.1125 18.6125 15.575 18.75 15 18.75C14.425 18.75 13.8875 18.6125 13.4 18.375L12.5 19.2875C13.225 19.7375 14.075 20 15 20C15.925 20 16.7875 19.7375 17.5 19.2875L16.6125 18.375ZM21.1125 10.6625L20.2125 11.5625C20.8625 12.55 21.25 13.75 21.25 15C21.25 16.25 20.8625 17.45 20.2125 18.4375L21.1125 19.3375C21.9875 18.125 22.5 16.625 22.5 15C22.5 13.375 21.9875 11.875 21.1125 10.6625ZM11.5625 9.7875C12.55 9.1375 13.75 8.75 15 8.75C16.25 8.75 17.45 9.1375 18.4375 9.7875L19.3375 8.8875C18.0713 7.98488 16.555 7.49976 15 7.49976C13.445 7.49976 11.9287 7.98488 10.6625 8.8875L11.5625 9.7875M18.4375 20.2125C17.45 20.8625 16.25 21.25 15 21.25C13.75 21.25 12.55 20.8625 11.5625 20.2125L10.6625 21.1125C11.875 21.9875 13.375 22.5 15 22.5C16.625 22.5 18.125 21.9875 19.3375 21.1125L18.4375 20.2125M9.7875 18.4375C9.1375 17.45 8.75 16.25 8.75 15C8.75 13.75 9.1375 12.55 9.7875 11.5625L8.8875 10.6625C7.98488 11.9287 7.49976 13.445 7.49976 15C7.49976 16.555 7.98488 18.0713 8.8875 19.3375L9.7875 18.4375V18.4375Z" fill="#B73EAB"/>
</svg>
